<?xml version="1.0" encoding="utf-8"?>
<!-- Generator: Adobe Illustrator 18.0.0, SVG Export Plug-In . SVG Version: 6.00 Build 0)  -->
<!DOCTYPE svg PUBLIC "-//W3C//DTD SVG 1.1//EN" "http://www.w3.org/Graphics/SVG/1.1/DTD/svg11.dtd">
<svg version="1.1" id="Layer_1" xmlns="http://www.w3.org/2000/svg" xmlns:xlink="http://www.w3.org/1999/xlink" x="0px" y="0px"
	 viewBox="0 0 42 42" enable-background="new 0 0 42 42" xml:space="preserve">
<g>
	<path fill="#FFECCE" d="M13,17.2c0.1-0.5,2.9-1.5,7.9-1.5c5,0,7.9,1,8,1.5v0.8c-1,0.7-3.9,1.3-7.9,1.3c-4.1,0-7-0.6-8.1-1.3V17.2z"
		/>
	<path fill="#FFECCE" d="M27,24.8c0.9-0.2,1.6-0.5,2-0.8v-5.2c-2.2,1.1-6.7,1.2-7.9,1.2c-2.3,0-4.6-0.2-6.2-0.6
		c-0.8-0.2-1.4-0.4-1.8-0.6v5.2c1.1,0.7,3.9,1.3,8,1.3C23.4,25.4,25.5,25.2,27,24.8z"/>
	<path fill="#FFECCE" d="M21.1,26.2c-2.3,0-4.6-0.2-6.2-0.6c-0.8-0.2-1.4-0.4-1.8-0.6v5c0,0.6,2.8,1.7,8,1.7h0
		c1.5,0,2.9-0.1,4.1-0.3l3.7-3.7V25C26.7,26.1,22.2,26.2,21.1,26.2z"/>
	<path fill="#3D6480" d="M21.1,31.7L21.1,31.7c-5.2,0-8-1.1-8-1.7v-5c0.5,0.2,1.1,0.4,1.8,0.6c1.7,0.4,3.9,0.6,6.2,0.6
		c1.1,0,5.6-0.1,7.9-1.2v2.6l1.7-1.7v-8.5c0-3-7.5-3.2-9.8-3.2c-2.9,0-9.6,0.3-9.6,3.2v12.5c0,3.3,8.1,3.4,9.7,3.4h0
		c0.8,0,1.5,0,2.2-0.1l1.9-1.9C24,31.6,22.6,31.7,21.1,31.7z M13,17.2c0.1-0.5,2.9-1.5,7.9-1.5c5,0,7.9,1,8,1.5v0.8
		c-1,0.7-3.9,1.3-7.9,1.3c-4.1,0-7-0.6-8.1-1.3V17.2z M13,18.8c0.5,0.2,1.1,0.4,1.8,0.6c1.7,0.4,3.9,0.6,6.2,0.6
		c1.1,0,5.6-0.1,7.9-1.2v5.2c-0.4,0.3-1.1,0.5-2,0.8c-1.5,0.4-3.6,0.6-5.9,0.6c-4.1,0-7-0.6-8-1.3V18.8z"/>
	<g>
		<polygon fill="#3D6480" points="37.2,32.7 37.2,35.8 32,30.6 30.7,31.9 35.9,37.2 32.7,37.2 32.7,39.1 39.1,39.1 39.1,32.7 		"/>
	</g>
	<g>
		<path fill="#3D6480" d="M18.1,12.4h-0.9l-0.5-1.6h-2.8l-0.5,1.6h-0.9l2.2-6.7h1.2L18.1,12.4z M15.3,6.4l-1.2,3.7h2.4L15.3,6.4z"/>
		<path fill="#3D6480" d="M21.5,7.6h0.8l-1.6,4.9h-1.1L18,7.6h0.8l1.3,4.2L21.5,7.6z"/>
		<path fill="#3D6480" d="M25.2,8.2c-0.5,0.2-1,0.6-1.4,0.8v3.4H23V7.6h0.7l0,0.7c0.4-0.3,0.9-0.6,1.3-0.8L25.2,8.2z"/>
		<path fill="#3D6480" d="M27.6,12.5c-1.4,0-2-0.8-2-1.8V9.3c0-1,0.6-1.8,2-1.8c1.4,0,2,0.8,2,1.8v1.4C29.5,11.7,29,12.5,27.6,12.5z
			 M27.6,8.2c-0.8,0-1.1,0.4-1.1,1.1v1.5c0,0.7,0.4,1.1,1.1,1.1c0.8,0,1.1-0.4,1.1-1.1V9.3C28.7,8.6,28.3,8.2,27.6,8.2z"/>
	</g>
</g>
</svg>
