<?xml version="1.0" encoding="utf-8"?>
<!-- Generator: Adobe Illustrator 18.0.0, SVG Export Plug-In . SVG Version: 6.00 Build 0)  -->
<!DOCTYPE svg PUBLIC "-//W3C//DTD SVG 1.1//EN" "http://www.w3.org/Graphics/SVG/1.1/DTD/svg11.dtd">
<svg version="1.1" id="Layer_1" xmlns="http://www.w3.org/2000/svg" xmlns:xlink="http://www.w3.org/1999/xlink" x="0px" y="0px"
	 viewBox="0 0 42 42" enable-background="new 0 0 42 42" xml:space="preserve">
<polygon fill="none" points="29.3,30.8 29.3,36.1 35,33.5 "/>
<path fill="#0CB20F" d="M27.5,27.9V39l11.9-5.6L27.5,27.9z M29.3,30.8l5.7,2.7l-5.7,2.7V30.8z"/>
<polygon fill="none" points="29.3,30.8 29.3,36.1 35,33.5 "/>
<path fill="#0CB20F" d="M27.5,27.9V39l11.9-5.6L27.5,27.9z M29.3,30.8l5.7,2.7l-5.7,2.7V30.8z"/>
<polygon fill="none" points="29.3,30.8 29.3,36.1 35,33.5 "/>
<path fill="#0CB20F" d="M27.5,27.9V39l11.9-5.6L27.5,27.9z M29.3,30.8l5.7,2.7l-5.7,2.7V30.8z"/>
<polygon fill="none" points="29.3,30.8 29.3,36.1 35,33.5 "/>
<path fill="#0CB20F" d="M27.5,27.9V39l11.9-5.6L27.5,27.9z M29.3,30.8l5.7,2.7l-5.7,2.7V30.8z"/>
<path fill="#383431" d="M9.7,14.9c-0.4,0.3-1,0.9-1.4,1.2c0,0-0.5-0.7-0.6-0.7c-0.2-0.2-0.5-0.3-0.9-0.3c-0.6,0.1-0.8,0.5-0.8,1.1
	c0,0,0.1,0.2,0.2,0.4c0,0,1.7,1.7,1.7,1.7c1.8,1.8,0.1,4.7-2.2,4.9c-1.4,0.1-2.6-0.6-3.1-2l1.6-0.9c0,0,0.7,1.9,2.1,1.1
	c0,0,1.5-0.7-0.1-2.2c-1.3-1.2-3-3.5-1.1-5c0.8-0.7,2.1-1,3.1-0.6c0.5,0.2,0.9,0.6,1.3,1L9.7,14.9z"/>
<path fill="#383431" d="M13.1,16.1c-0.4,0-0.7,0.1-1,0.2c-1.3,0.5-2.5,1.8-2.7,3.2l-0.7,5.8h1.5c0,0,0.3-2.7,0.3-2.7
	c0,0.2,0.8,0.4,0.9,0.4c2.6,0.9,5.7-1.6,5.2-4.4C16.3,16.8,14.8,16,13.1,16.1z M13,21.6c-1.2,0-2-0.6-2-1.7s0.9-2.3,2.1-2.3
	s2,0.6,2,1.7C15.1,20.5,14.2,21.6,13,21.6z"/>
<path fill="#383431" d="M22.3,20.7c0,0-0.2,2.2-0.2,2.2c0,0.2-1,0.3-1.2,0.3c-1.4,0.2-2.8-0.6-3.4-1.9c-0.5-1.2-0.2-2.6,0.5-3.6
	c0.6-0.9,1.6-1.4,2.6-1.6c1-0.2,2.2,0.2,3,0.9c1.1,1,0.8,2.3,0.7,3.6c0,0.2-0.1,2.4-0.2,2.4l-1.6,0c0.1-0.6,0.1-1.2,0.2-1.9
	c0-0.5,0.1-0.9,0.1-1.4c0.1-0.6,0.1-1-0.3-1.5c-0.3-0.4-0.7-0.7-1.2-0.7c0,0-1.9-0.1-2.3,1.6c0,0-0.5,2.2,1.4,2.6
	C20.4,21.8,21.8,21.9,22.3,20.7z"/>
<path fill="#383431" d="M24.9,23h1.6l0.2-4.7c0,0-0.1-0.8,1.6-0.6l0.1-1.6h-1.6c0,0-1.3,0-1.7,1.7L24.9,23z"/>
<polygon fill="#383431" points="31.3,13.8 29.3,15.2 28.5,23 30.1,23 30.4,19.4 33,23 35,23 31.8,18.6 33.7,16.5 33.6,14.7 
	30.8,17.7 "/>
<path fill="#E77215" d="M28.9,14.8l1.9-1.2l-2.6-1.1l3.5-1l0.5-3.6l1.8,2.9l3.3-0.9L35,12.5l1.6,3l-2.8-0.8l0.3,1.7
	c1,0.4,2.7,1.1,3.7,0.7c0.6-0.2,0.8-1,0.4-1.8l-1.4-2.7c0.8-0.9,1.6-1.8,2.4-2.8c0.3-0.3,0.6-0.6,0.5-1.1c-0.3-1.1-1.9-0.4-2.7-0.3
	c-0.8,0.2-1.6,0.3-2.4,0.5L32.7,6c0,0-0.8-0.7-1.4,0.3l-0.8,4c0,0-3.8,1.3-3.8,1.3c-0.6,0.2-0.8,0.7-0.7,1.3
	c0.1,0.5,0.4,0.7,0.8,0.9C27.5,14.1,28.2,14.4,28.9,14.8z"/>
</svg>
