<?xml version="1.0" encoding="utf-8"?>
<!-- Generator: Adobe Illustrator 23.0.6, SVG Export Plug-In . SVG Version: 6.00 Build 0)  -->
<svg version="1.1" id="Layer_1" xmlns="http://www.w3.org/2000/svg" xmlns:xlink="http://www.w3.org/1999/xlink" x="0px" y="0px"
	 viewBox="0 0 59 59" style="enable-background:new 0 0 59 59;" xml:space="preserve">
<style type="text/css">
	.st0{fill:none;}
	.st1{fill:#F05555;}
</style>
<circle id="Ellipse_237" class="st0" cx="29.6" cy="29.6" r="29.28"/>
<path id="Path_2354" class="st1" d="M29.6,0.32c16.17,0,29.28,13.11,29.28,29.28S45.77,58.88,29.6,58.88S0.32,45.77,0.32,29.6
	C0.34,13.44,13.44,0.34,29.6,0.32z M55.22,29.6C55.24,15.47,43.8,4,29.67,3.98c-6.18-0.01-12.16,2.22-16.82,6.28l36.09,36.09
	C52.99,41.71,55.22,35.76,55.22,29.6z M29.6,55.22c6.16,0,12.11-2.23,16.75-6.28L10.26,12.85c-9.27,10.66-8.14,26.82,2.52,36.09
	C17.44,53,23.42,55.23,29.6,55.22z"/>
</svg>
