<?xml version="1.0" encoding="utf-8"?>
<!-- Generator: Adobe Illustrator 20.1.0, SVG Export Plug-In . SVG Version: 6.00 Build 0)  -->
<svg version="1.1" id="Layer_1" xmlns="http://www.w3.org/2000/svg" xmlns:xlink="http://www.w3.org/1999/xlink" x="0px" y="0px"
	 width="67px" height="59px" viewBox="0 0 67 59" style="enable-background:new 0 0 67 59;" xml:space="preserve">
<style type="text/css">
	.st0{fill:#F1C40F;}
</style>
<g>
	<path class="st0" d="M65.5,47.5L38.7,4.1c-1.3-2.1-3.2-3.3-5.2-3.3c-2,0-3.9,1.2-5.2,3.3L1.5,47.5c-1.7,2.7-2,5.4-0.8,7.5
		c1.2,2.1,3.6,3.2,6.8,3.2h52c3.2,0,5.6-1.2,6.8-3.2C67.5,52.9,67.2,50.2,65.5,47.5z M63.7,53.5c-0.6,1.1-2.1,1.7-4.2,1.7h-52
		c-2.1,0-3.6-0.6-4.2-1.7C2.7,52.4,3,50.8,4.1,49L30.9,5.7c0.8-1.2,1.7-1.9,2.6-1.9c0.9,0,1.9,0.7,2.6,1.9L62.9,49
		C64,50.8,64.3,52.4,63.7,53.5z"/>
	<rect x="31.7" y="18.9" class="st0" width="3.6" height="20.9"/>
	<rect x="31.7" y="44.1" class="st0" width="3.6" height="3.6"/>
</g>
</svg>
