<?xml version="1.0" encoding="utf-8"?>
<!-- Generator: Adobe Illustrator 18.0.0, SVG Export Plug-In . SVG Version: 6.00 Build 0)  -->
<!DOCTYPE svg PUBLIC "-//W3C//DTD SVG 1.1//EN" "http://www.w3.org/Graphics/SVG/1.1/DTD/svg11.dtd">
<svg version="1.1" id="Layer_1" xmlns="http://www.w3.org/2000/svg" xmlns:xlink="http://www.w3.org/1999/xlink" x="0px" y="0px"
	 viewBox="0 0 42 42" enable-background="new 0 0 42 42" xml:space="preserve">
<polygon fill="#3D6480" points="37.9,32.2 36,32.2 36,35.3 30.8,30.1 29.5,31.4 34.7,36.7 31.5,36.7 31.5,38.6 37.9,38.6 "/>
<polygon fill="#EFF9FE" points="10,10 10,32 22.8,32 32,23 32,10 "/>
<polygon fill="#3D6480" points="10,32 10,10 32,10 32,23 34,21 34,8 8,8 8,34 20.7,34 22.8,32 "/>
<g>
	<path fill="#3D6480" d="M19,26v-4.5h-4.4V26h-1.3V16h1.3v4.3H19V16h1.3v10H19z"/>
	<path fill="#3D6480" d="M22.1,26V16H26c1.6,0,2.4,0.7,2.4,2v1.2c0,0.8-0.3,1.3-1.1,1.7c0.9,0.1,1.5,0.7,1.5,1.8v1.2
		c0,1.4-1,2.1-2.5,2.1H22.1z M27.1,18.1c0-0.6-0.4-0.9-1.1-0.9h-2.5v3.2h2.3c1,0,1.4-0.5,1.4-1.2V18.1z M27.4,22.7
		c0-0.8-0.5-1.2-1.4-1.2h-2.5v3.4H26c0.9,0,1.4-0.4,1.4-1.1V22.7z"/>
</g>
</svg>
