<?xml version="1.0" encoding="utf-8"?>
<!-- Generator: Adobe Illustrator 18.0.0, SVG Export Plug-In . SVG Version: 6.00 Build 0)  -->
<!DOCTYPE svg PUBLIC "-//W3C//DTD SVG 1.1//EN" "http://www.w3.org/Graphics/SVG/1.1/DTD/svg11.dtd">
<svg version="1.1" id="Layer_1" xmlns="http://www.w3.org/2000/svg" xmlns:xlink="http://www.w3.org/1999/xlink" x="0px" y="0px"
	 viewBox="0 0 42 42" enable-background="new 0 0 42 42" xml:space="preserve">
<polygon fill="#3D6480" points="12.5,5.6 10.6,5.6 10.6,8.7 5.4,3.4 4.1,4.8 9.3,10 6.2,10 6.2,11.9 12.5,11.9 "/>
<polygon fill="#EFF9FE" points="32,32 32,10 19.2,10 10,19 10,32 "/>
<polygon fill="#3D6480" points="32,10 32,32 10,32 10,19 8,21 8,34 34,34 34,8 21.3,8 19.2,10 "/>
<g>
	<path fill="#3D6480" d="M19,26v-4.5h-4.4V26h-1.3V16h1.3v4.3H19V16h1.3v10H19z"/>
	<path fill="#3D6480" d="M22.1,26V16H26c1.6,0,2.4,0.7,2.4,2v1.2c0,0.8-0.3,1.3-1.1,1.7c0.9,0.1,1.5,0.7,1.5,1.8v1.2
		c0,1.4-1,2.1-2.5,2.1H22.1z M27.1,18.1c0-0.6-0.4-0.9-1.1-0.9h-2.5v3.2h2.3c1,0,1.4-0.5,1.4-1.2V18.1z M27.4,22.7
		c0-0.8-0.5-1.2-1.4-1.2h-2.5v3.4H26c0.9,0,1.4-0.4,1.4-1.1V22.7z"/>
</g>
</svg>
