<?xml version="1.0" encoding="utf-8"?>
<!-- Generator: Adobe Illustrator 18.0.0, SVG Export Plug-In . SVG Version: 6.00 Build 0)  -->
<!DOCTYPE svg PUBLIC "-//W3C//DTD SVG 1.1//EN" "http://www.w3.org/Graphics/SVG/1.1/DTD/svg11.dtd">
<svg version="1.1" id="Layer_1" xmlns="http://www.w3.org/2000/svg" xmlns:xlink="http://www.w3.org/1999/xlink" x="0px" y="0px"
	 viewBox="0 0 42 42" enable-background="new 0 0 42 42" xml:space="preserve">
<g>
	<g>
		<path fill="#EFF9FE" d="M22.8,10v2.7H10V19v13h22V19.2V10h-9H22.8z M20.3,26H19v-4.5h-4.4V26h-1.3V16h1.3v4.3H19V16h1.3V26z
			 M28.3,18v1.2c0,0.8-0.3,1.3-1.1,1.7c0.9,0.1,1.5,0.7,1.5,1.8v1.2c0,1.4-1,2.1-2.5,2.1h-4.1V16H26C27.6,16,28.3,16.7,28.3,18z"/>
		<path fill="#EFF9FE" d="M27.1,19.2v-1.1c0-0.6-0.4-0.9-1.1-0.9h-2.5v3.2h2.3C26.7,20.4,27.1,19.9,27.1,19.2z"/>
		<path fill="#EFF9FE" d="M27.4,23.7v-1c0-0.8-0.5-1.2-1.4-1.2h-2.5v3.4H26C26.9,24.9,27.4,24.5,27.4,23.7z"/>
		<path fill="#3D6480" d="M22.8,8V5.3H4v7.4h4V21v13h26V21.3V8H22.8z M5.7,7h15.3v4H5.7V7z M32,19.2V32H10V19v-6.3h12.8V10H23h9
			V19.2z"/>
		<polygon fill="#3D6480" points="19,20.3 14.6,20.3 14.6,16 13.3,16 13.3,26 14.6,26 14.6,21.5 19,21.5 19,26 20.3,26 20.3,16 
			19,16 		"/>
		<path fill="#3D6480" d="M22.1,26h4.1c1.5,0,2.5-0.8,2.5-2.1v-1.2c0-1.1-0.6-1.7-1.5-1.8c0.9-0.3,1.1-0.9,1.1-1.7V18
			c0-1.3-0.8-2-2.4-2h-3.9V26z M23.4,17.1h2.5c0.8,0,1.1,0.3,1.1,0.9v1.1c0,0.7-0.4,1.2-1.4,1.2h-2.3V17.1z M23.4,21.5h2.5
			c1,0,1.4,0.4,1.4,1.2v1c0,0.8-0.5,1.1-1.4,1.1h-2.6V21.5z"/>
		<rect x="5.7" y="7" fill="#FFFFFF" width="15.3" height="4"/>
	</g>
</g>
</svg>
