<?xml version="1.0" encoding="utf-8"?>
<!-- Generator: Adobe Illustrator 18.0.0, SVG Export Plug-In . SVG Version: 6.00 Build 0)  -->
<!DOCTYPE svg PUBLIC "-//W3C//DTD SVG 1.1//EN" "http://www.w3.org/Graphics/SVG/1.1/DTD/svg11.dtd">
<svg version="1.1" id="Layer_1" xmlns="http://www.w3.org/2000/svg" xmlns:xlink="http://www.w3.org/1999/xlink" x="0px" y="0px"
	 viewBox="0 0 42 42" enable-background="new 0 0 42 42" xml:space="preserve">
<g>
	<polygon fill="none" points="35.4,33.5 29.7,30.8 29.7,36.1 	"/>
	<path fill="#EFF9FE" d="M29.4,26.8V11.5h1.7v1.1h1.1c1.1,0,1.9-0.9,1.9-1.9c0-1.1-0.9-1.9-1.9-1.9H17.6c-2.4,0-3.7,1.3-3.7,3.7
		v15.3H20v1.7h-9.4c-1.1,0-1.9,0.9-1.9,1.9c0,1.1,0.9,1.9,1.9,1.9H23l4.9-4.9l0.3-0.3L29.4,26.8z"/>
	<path fill="#3D6480" d="M8.7,31.3c0-1.1,0.9-1.9,1.9-1.9H20v-1.7h-6.2V12.4c0-2.4,1.3-3.7,3.7-3.7h14.7c1.1,0,1.9,0.9,1.9,1.9
		c0,1.1-0.9,1.9-1.9,1.9h-1.1v-1.1h-1.7v15.4l1.7-1.7V14.3h1.1c2,0,3.6-1.6,3.6-3.6c0-2-1.6-3.6-3.6-3.6H17.6
		c-3.4,0-5.4,2.1-5.4,5.4v15.3h-1.6c-2,0-3.6,1.6-3.6,3.6c0,2,1.6,3.6,3.6,3.6h10.7l1.7-1.7H10.6C9.5,33.3,8.7,32.4,8.7,31.3z"/>
	<g>
		<path fill="#3D6480" d="M15.9,16.4h2.4c1.4,0,1.9,0.6,1.9,1.6v1c0,1-0.5,1.6-1.9,1.6h-1.5V23h-0.9V16.4z M18.3,17.2h-1.5v2.7h1.5
			c0.8,0,1.1-0.2,1.1-0.9v-1C19.4,17.4,19.1,17.2,18.3,17.2z"/>
		<path fill="#3D6480" d="M21.3,17.4v-1.2h0.8v1.2H21.3z M21.3,23v-4.9h0.8V23H21.3z"/>
		<path fill="#3D6480" d="M27.5,18.7l-0.6,0.1c0.2,0.3,0.3,0.6,0.3,1V20c0,1-0.6,1.7-1.9,1.7c-0.2,0-0.3,0-0.5,0
			c-0.2,0.1-0.4,0.3-0.4,0.5c0,0.2,0.1,0.3,0.3,0.3c0.5,0,0.8,0.1,1.4,0.1c0.9,0.1,1.2,0.4,1.2,1.2c0,1.1-0.4,1.4-2.1,1.4
			c-0.4,0-1.2-0.1-1.8-0.2l0.1-0.7c0.5,0.1,1.1,0.2,1.6,0.2c1.2,0,1.4-0.2,1.4-0.7c0-0.4-0.1-0.5-0.7-0.5c-0.5,0-0.7-0.1-1.3-0.1
			c-0.7-0.1-0.9-0.4-0.9-0.9c0-0.4,0.2-0.7,0.5-0.9c-0.5-0.3-0.7-0.7-0.7-1.4v-0.2c0-1.1,0.5-1.7,1.9-1.7c0.3,0,0.6,0,0.8,0.1h1.4
			V18.7z M25.3,18.8c-0.8,0-1.1,0.3-1.1,1V20c0,0.7,0.3,1,1.1,1c0.8,0,1.1-0.3,1.1-1v-0.2C26.4,19,26.1,18.8,25.3,18.8z"/>
	</g>
	<path fill="#0CB20F" d="M39.8,33.5l-11.6-5.4l-0.3,0.3V39L39.8,33.5z M35.4,33.5l-5.7,2.7v-5.3L35.4,33.5z"/>
</g>
</svg>
