<?xml version="1.0" encoding="utf-8"?>
<!-- Generator: Adobe Illustrator 18.0.0, SVG Export Plug-In . SVG Version: 6.00 Build 0)  -->
<!DOCTYPE svg PUBLIC "-//W3C//DTD SVG 1.1//EN" "http://www.w3.org/Graphics/SVG/1.1/DTD/svg11.dtd">
<svg version="1.1" id="Layer_1" xmlns="http://www.w3.org/2000/svg" xmlns:xlink="http://www.w3.org/1999/xlink" x="0px" y="0px"
	 viewBox="0 0 42 42" enable-background="new 0 0 42 42" xml:space="preserve">
<g>
	<path fill="none" d="M20,34.9c0,0.5,0.1,0.7,0.7,0.7c0.4,0,0.9-0.2,1.3-0.4v-0.9h-1.2C20.2,34.2,20,34.4,20,34.9z"/>
	<g>
		<path fill="#FFECCE" d="M21.1,26.4c2.2,0,4.3-0.2,5.8-0.6c1.7-0.5,2.1-1,2.1-1.1v-4.9c-2.2,1.1-6.7,1.2-7.9,1.2
			c-2.3,0-4.6-0.2-6.2-0.6c-0.8-0.2-1.4-0.4-1.8-0.6l0,5C13,25.3,15.9,26.4,21.1,26.4L21.1,26.4z"/>
		<path fill="#FFECCE" d="M21.1,20.1c4,0,6.8-0.6,7.9-1.3v-5.2c-2.2,1.1-6.7,1.2-7.9,1.2c-2.3,0-4.5-0.2-6.2-0.6L13,16l0,2.8
			C14.1,19.5,17,20.1,21.1,20.1z"/>
		<path fill="#FFECCE" d="M23.6,13.9c0.1,0,0.2,0,0.4,0c0.3,0,0.6-0.1,0.9-0.1c0.1,0,0.2,0,0.3,0c0.3,0,0.6-0.1,0.9-0.1
			c0,0,0.1,0,0.1,0c1.3-0.2,2.2-0.6,2.8-0.9v-0.8c-0.2-0.5-3-1.5-8-1.5c-0.8,0-1.5,0-2.2,0.1l-3.1,3c1.4,0.3,3.3,0.5,5.5,0.5
			C22,14,22.8,14,23.6,13.9z"/>
		<path fill="#3D6480" d="M21.1,28.1c2.4,0,4.6-0.2,6.2-0.7c2.2-0.6,3.4-1.5,3.4-2.8V11.9c0-2.9-7.5-3.2-9.7-3.2c-0.1,0-0.3,0-0.4,0
			l-1.8,1.8c0.7,0,1.4-0.1,2.2-0.1c5,0,7.9,1,8,1.5v0.8c-0.5,0.3-1.5,0.7-2.8,0.9c0,0-0.1,0-0.1,0c-0.3,0.1-0.6,0.1-0.9,0.1
			c-0.1,0-0.2,0-0.3,0c-0.3,0-0.6,0.1-0.9,0.1c-0.1,0-0.2,0-0.4,0C22.8,14,22,14,21.1,14c-2.2,0-4.1-0.2-5.5-0.5l-0.7,0.7
			c1.6,0.4,3.8,0.6,6.2,0.6c1.1,0,5.6-0.1,7.9-1.2v5.2c-1,0.7-3.9,1.3-7.9,1.3c-4.1,0-7-0.6-8-1.3l0-2.8l-1.7,1.7v7
			C11.3,28,19.5,28.1,21.1,28.1L21.1,28.1z M13,24.7l0-5c0.5,0.2,1.1,0.4,1.8,0.6c1.7,0.4,3.9,0.6,6.2,0.6c1.1,0,5.6-0.1,7.9-1.2
			v4.9c0,0.2-0.4,0.7-2.1,1.1c-1.5,0.4-3.6,0.6-5.8,0.6h0C15.9,26.4,13,25.3,13,24.7z"/>
		<polygon fill="#3D6480" points="5.3,9.9 5.3,11.8 11.7,11.8 11.7,5.5 9.8,5.5 9.8,8.5 4.6,3.3 3.3,4.7 8.5,9.9 		"/>
	</g>
	<g>
		<path fill="#3D6480" d="M11.1,36.3c-0.6,0-1.4-0.1-2-0.3l0.1-0.7c0.6,0.2,1.2,0.3,1.9,0.3c1.1,0,1.3-0.3,1.3-1c0-0.9,0-1-1.4-1.3
			c-1.6-0.4-1.8-0.7-1.8-2c0-1.2,0.5-1.7,2.1-1.7c0.6,0,1.3,0.1,1.8,0.2l-0.1,0.7c-0.5-0.1-1.2-0.2-1.7-0.2c-1.1,0-1.3,0.2-1.3,1
			c0,0.9,0,1,1.3,1.3c1.8,0.4,1.9,0.7,1.9,2C13.3,35.6,12.9,36.3,11.1,36.3z"/>
		<path fill="#3D6480" d="M14.3,33c0-1.1,0.4-1.8,2.1-1.8c0.4,0,1.2,0.1,1.7,0.2v6.7l-0.8,0.1v-2.3c-0.3,0.2-0.9,0.3-1.5,0.3
			c-1,0-1.4-0.6-1.4-1.5V33z M17.2,32c-0.3-0.1-0.7-0.1-1-0.1c-1,0-1.2,0.4-1.2,1v1.8c0,0.5,0.2,0.8,0.8,0.8c0.4,0,1-0.2,1.3-0.4V32
			z"/>
		<path fill="#3D6480" d="M21.2,36.3c-1.4,0-2-0.8-2-1.8v-1.4c0-1,0.6-1.8,2-1.8c1.4,0,2,0.8,2,1.8v1.4
			C23.1,35.5,22.6,36.3,21.2,36.3z M21.2,32C20.4,32,20,32.3,20,33v1.5c0,0.7,0.4,1.1,1.1,1.1c0.8,0,1.1-0.4,1.1-1.1V33
			C22.3,32.3,21.9,32,21.2,32z"/>
		<path fill="#3D6480" d="M26,36.3c-1.4,0-2-0.8-2-1.8v-1.4c0-1,0.6-1.8,2-1.8c1.4,0,2,0.8,2,1.8v1.4C27.9,35.5,27.4,36.3,26,36.3z
			 M26,32c-0.8,0-1.1,0.4-1.1,1.1v1.5c0,0.7,0.4,1.1,1.1,1.1c0.8,0,1.1-0.4,1.1-1.1V33C27.1,32.3,26.7,32,26,32z"/>
		<path fill="#3D6480" d="M32.9,34.7c0,1-0.4,1.6-1.6,1.6c-0.4,0-1-0.1-1.4-0.1v2l-0.8,0.1v-7h0.7l0.1,0.4c0.4-0.3,1-0.5,1.6-0.5
			c1,0,1.4,0.5,1.4,1.5V34.7z M29.9,35.4c0.4,0.1,1,0.2,1.3,0.2c0.6,0,0.8-0.3,0.8-0.8v-2c0-0.5-0.2-0.7-0.7-0.7
			c-0.5,0-1,0.3-1.4,0.6V35.4z"/>
	</g>
</g>
</svg>
