<?xml version="1.0" encoding="utf-8"?>
<!-- Generator: Adobe Illustrator 18.0.0, SVG Export Plug-In . SVG Version: 6.00 Build 0)  -->
<!DOCTYPE svg PUBLIC "-//W3C//DTD SVG 1.1//EN" "http://www.w3.org/Graphics/SVG/1.1/DTD/svg11.dtd">
<svg version="1.1" id="Layer_1" xmlns="http://www.w3.org/2000/svg" xmlns:xlink="http://www.w3.org/1999/xlink" x="0px" y="0px"
	 viewBox="0 0 42 42" enable-background="new 0 0 42 42" xml:space="preserve">
<g>
	<g>
		<path fill="#FFECCE" d="M13,17.2c0.1-0.5,2.9-1.5,7.9-1.5c5,0,7.9,1,8,1.5v0.8c-1,0.7-3.9,1.3-7.9,1.3c-4.1,0-7-0.6-8.1-1.3V17.2z
			"/>
		<path fill="#FFECCE" d="M27,24.8c0.9-0.2,1.6-0.5,2-0.8v-5.2c-2.2,1.1-6.7,1.2-7.9,1.2c-2.3,0-4.6-0.2-6.2-0.6
			c-0.8-0.2-1.4-0.4-1.8-0.6v5.2c1.1,0.7,3.9,1.3,8,1.3C23.4,25.4,25.5,25.2,27,24.8z"/>
		<path fill="#FFECCE" d="M21.1,26.2c-2.3,0-4.6-0.2-6.2-0.6c-0.8-0.2-1.4-0.4-1.8-0.6v5c0,0.6,2.8,1.7,8,1.7h0
			c1.5,0,2.9-0.1,4.1-0.3l3.7-3.7V25C26.7,26.1,22.2,26.2,21.1,26.2z"/>
		<path fill="#3D6480" d="M21.1,31.7L21.1,31.7c-5.2,0-8-1.1-8-1.7v-5c0.5,0.2,1.1,0.4,1.8,0.6c1.7,0.4,3.9,0.6,6.2,0.6
			c1.1,0,5.6-0.1,7.9-1.2v2.6l1.7-1.7v-8.5c0-3-7.5-3.2-9.8-3.2c-2.9,0-9.6,0.3-9.6,3.2v12.5c0,3.3,8.1,3.4,9.7,3.4h0
			c0.8,0,1.5,0,2.2-0.1l1.9-1.9C24,31.6,22.6,31.7,21.1,31.7z M13,17.2c0.1-0.5,2.9-1.5,7.9-1.5c5,0,7.9,1,8,1.5v0.8
			c-1,0.7-3.9,1.3-7.9,1.3c-4.1,0-7-0.6-8.1-1.3V17.2z M13,18.8c0.5,0.2,1.1,0.4,1.8,0.6c1.7,0.4,3.9,0.6,6.2,0.6
			c1.1,0,5.6-0.1,7.9-1.2v5.2c-0.4,0.3-1.1,0.5-2,0.8c-1.5,0.4-3.6,0.6-5.9,0.6c-4.1,0-7-0.6-8-1.3V18.8z"/>
		<g>
			<polygon fill="#3D6480" points="37.2,32.7 37.2,35.8 32,30.6 30.7,31.9 35.9,37.2 32.7,37.2 32.7,39.1 39.1,39.1 39.1,32.7 			
				"/>
		</g>
	</g>
	<g>
		<path fill="#3D6480" d="M11.1,11.1c-0.6,0-1.4-0.1-2-0.3L9.3,10c0.6,0.2,1.2,0.3,1.9,0.3c1.1,0,1.3-0.3,1.3-1c0-0.9,0-1-1.4-1.3
			C9.4,7.7,9.3,7.3,9.3,6c0-1.2,0.5-1.7,2.1-1.7c0.6,0,1.3,0.1,1.8,0.2l-0.1,0.7C12.6,5.1,11.9,5,11.4,5c-1.1,0-1.3,0.2-1.3,1
			c0,0.9,0,1,1.3,1.3c1.8,0.4,1.9,0.7,1.9,2C13.3,10.4,12.9,11.1,11.1,11.1z"/>
		<path fill="#3D6480" d="M14.3,7.9c0-1.1,0.4-1.8,2.1-1.8c0.4,0,1.2,0.1,1.7,0.2V13l-0.8,0.1v-2.3c-0.3,0.2-0.9,0.3-1.5,0.3
			c-1,0-1.4-0.6-1.4-1.5V7.9z M17.2,6.8c-0.3-0.1-0.7-0.1-1-0.1c-1,0-1.2,0.4-1.2,1v1.8c0,0.5,0.2,0.8,0.8,0.8c0.4,0,1-0.2,1.3-0.4
			V6.8z"/>
		<path fill="#3D6480" d="M21.2,11.1c-1.4,0-2-0.8-2-1.8V7.9c0-1,0.6-1.8,2-1.8c1.4,0,2,0.8,2,1.8v1.4
			C23.1,10.3,22.6,11.1,21.2,11.1z M21.2,6.8c-0.8,0-1.1,0.4-1.1,1.1v1.5c0,0.7,0.4,1.1,1.1,1.1c0.8,0,1.1-0.4,1.1-1.1V7.8
			C22.3,7.1,21.9,6.8,21.2,6.8z"/>
		<path fill="#3D6480" d="M26,11.1c-1.4,0-2-0.8-2-1.8V7.9c0-1,0.6-1.8,2-1.8c1.4,0,2,0.8,2,1.8v1.4C27.9,10.3,27.4,11.1,26,11.1z
			 M26,6.8c-0.8,0-1.1,0.4-1.1,1.1v1.5c0,0.7,0.4,1.1,1.1,1.1c0.8,0,1.1-0.4,1.1-1.1V7.8C27.1,7.1,26.7,6.8,26,6.8z"/>
		<path fill="#3D6480" d="M32.9,9.5c0,1-0.4,1.6-1.6,1.6c-0.4,0-1-0.1-1.4-0.1v2l-0.8,0.1v-7h0.7l0.1,0.4c0.4-0.3,1-0.5,1.6-0.5
			c1,0,1.4,0.5,1.4,1.5V9.5z M29.9,10.2c0.4,0.1,1,0.2,1.3,0.2c0.6,0,0.8-0.3,0.8-0.8v-2c0-0.5-0.2-0.7-0.7-0.7
			c-0.5,0-1,0.3-1.4,0.6V10.2z"/>
	</g>
</g>
</svg>
