<?xml version="1.0" encoding="utf-8"?>
<!-- Generator: Adobe Illustrator 18.0.0, SVG Export Plug-In . SVG Version: 6.00 Build 0)  -->
<!DOCTYPE svg PUBLIC "-//W3C//DTD SVG 1.1//EN" "http://www.w3.org/Graphics/SVG/1.1/DTD/svg11.dtd">
<svg version="1.1" id="Layer_1" xmlns="http://www.w3.org/2000/svg" xmlns:xlink="http://www.w3.org/1999/xlink" x="0px" y="0px"
	 viewBox="0 0 22 22" enable-background="new 0 0 22 22" xml:space="preserve">
<g>
	<path fill="#FE9C04" d="M21.6,18.6l-4.8-8.2l-4.8-8.2c-0.2-0.4-0.6-0.6-1.1-0.6s-0.9,0.2-1.1,0.6l-4.8,8.2l-4.8,8.2
		c-0.2,0.4-0.2,0.9,0,1.3s0.6,0.6,1.1,0.6H11h9.5c0.4,0,0.9-0.2,1.1-0.6C21.8,19.5,21.8,19,21.6,18.6z M11,18.7H2.4l4.3-7.4L11,3.9
		l4.3,7.4l4.3,7.4H11z"/>
	<path fill="#FE9C04" d="M11,15.3c-0.4,0-0.7,0.1-0.8,0.3c-0.2,0.2-0.3,0.5-0.3,0.8c0,0.4,0.1,0.6,0.3,0.8c0.2,0.2,0.5,0.3,0.8,0.3
		c0.4,0,0.6-0.1,0.8-0.3c0.2-0.2,0.3-0.5,0.3-0.8c0-0.4-0.1-0.6-0.3-0.8C11.6,15.4,11.4,15.3,11,15.3z"/>
	<polygon fill="#FE9C04" points="10.2,14.2 11.8,14.2 12.1,7.9 9.9,7.9 	"/>
</g>
</svg>
