<svg xmlns="http://www.w3.org/2000/svg" viewBox="0 0 43 43"><defs><style>.cls-1{fill:#3d6480;}.cls-2{fill:#eef8fd;}</style></defs><g id="Layer_3" data-name="Layer 3"><path class="cls-1" d="M14,6.81H8V36.19H20.92V6.81H14Zm0,28.38H9V30.51h5Zm0-5.68H9v-16h5Zm0-17H9V7.81h5Zm6,22.7H15V30.51h5Zm0-5.68H15v-16h5Zm0-17H15V7.81h5Z"/><path class="cls-1" d="M30.63,13h0L29.32,6.41,22.5,7.78,27,30h0l.1.49.85-.85L24.79,14.13l4.86-1,2.47,12.32.85-.85Zm-6,.19-.92-4.59,4.87-1,.91,4.58Z"/><polygon class="cls-1" points="37.5 33.26 37.5 35.98 32.34 30.76 31.02 32.07 36.27 37.26 33.5 37.26 33.5 39.26 39.5 39.26 39.5 33.26 37.5 33.26"/><path class="cls-1" d="M24.11,28.18h-4L13,35.29l4.37,4.38,7.11-7.11V28.68m-10.36,6.5,6.32-6.32h3.3v3.32L17.43,38.5Z"/><path class="cls-2" d="M23.75,32.18v-3.3h-3.3l-6.32,6.3,3.3,3.3ZM20.27,31.1a1.45,1.45,0,1,1,1.45,1.46,1.45,1.45,0,0,1-1.45-1.46Z"/><path class="cls-1" d="M23.17,31.12a1.45,1.45,0,0,0-2.9,0,1.45,1.45,0,0,0,2.9,0Zm-2.18,0a.73.73,0,0,1,1.46,0,.73.73,0,0,1-1.46,0Z"/></g></svg>