<?xml version="1.0" encoding="utf-8"?>
<svg xmlns="http://www.w3.org/2000/svg" width="200" height="200" stroke="#000" stroke-linecap="round" stroke-linejoin="round" fill="#fff" fill-rule="evenodd"><path d="M174.33 155.7217v14.5032l-24.137-24.583-6.2098 6.3247 24.137 24.5878h-14.5266V185.5l29.515-.0047v-29.7736zM48.3592 48.5h103.0304v69.886l7.8593-8V40.5H40.5v120.9392h68.6222l7.85-7.9998h-68.613z" fill-rule="nonzero" fill="#3d6480" stroke="none"/><path d="M151.3896 48.5H48.3546V153.444h68.6176l34.4174-35.0536z" fill="#f1f9fe" stroke="none"/><path d="M65.3736 102.8328v-9.8086c2.3192-.7777 4.63-1.7317 6.94-2.862l4.2317-2.6083c2.54-1.7387 2.962-5.5064.8463-8.694-1.4105-2.0286-2.82-3.7674-4.3727-5.2164l-.8463-1.1593c4.937 1.45 9.7328 4.347 14.2467 8.694l1.9748 2.6083c1.2696 2.3184 1.2696 4.6368 0 7.245-1.6927 2.6083-3.6674 4.6367-5.7834 5.5064-5.6132 3.094-11.3592 5.3688-17.2382 6.295zm0 10.2195v20.4368c11.603-1.6458 23.1644-4.238 34.5883-7.6776 7.8992-2.3184 15.6574-5.796 23.2744-11.0125 3.1033-1.7387 6.0656-4.6367 8.7456-8.694 3.5264-4.9266 3.6675-11.3024 0-16.5187-2.116-3.1878-4.3728-5.5064-6.7707-7.5348-7.8993-6.086-15.9396-10.433-24.262-12.7515-9.592-3.188-19.1838-5.2164-28.9168-6.3756-2.257-.2898 3.2443 2.3183 8.1813 3.7673 7.053 1.74 14.1058 4.9267 20.8765 9.2737 2.398 1.45 4.655 3.7675 6.7708 6.6654 2.54 4.0574 2.398 8.6944-.4232 12.4618-1.5517 2.0287-3.2443 3.4777-4.937 4.9267-5.078 3.7674-10.4383 6.3755-15.6574 7.8247-7.1792 2.2692-14.3584 4.0053-21.47 5.2084z" stroke="none" fill-rule="nonzero" fill="#2e657e"/></svg>