<?xml version="1.0" encoding="utf-8"?>
<!-- Generator: Adobe Illustrator 22.0.1, SVG Export Plug-In . SVG Version: 6.00 Build 0)  -->
<svg version="1.1" id="Layer_1" xmlns="http://www.w3.org/2000/svg" xmlns:xlink="http://www.w3.org/1999/xlink" x="0px" y="0px"
	 viewBox="0 0 42 42" style="enable-background:new 0 0 42 42;" xml:space="preserve">
<style type="text/css">
	.st0{fill:#3D6480;}
	.st1{fill:#EFF9FE;}
</style>
<polygon class="st0" points="12.5,5.6 10.6,5.6 10.6,8.7 5.4,3.4 4.1,4.8 9.3,10 6.2,10 6.2,11.9 12.5,11.9 "/>
<polygon class="st1" points="32,32 32,10 19.2,10 10,19 10,32 "/>
<polygon class="st0" points="32,10 32,32 10,32 10,19 8,21 8,34 34,34 34,8 21.3,8 19.2,10 "/>
<g>
	<path class="st0" d="M17.7,22.4c0,1.1-0.7,2-2.3,2s-2.3-0.9-2.3-2v-2.7c0-1.1,0.7-2,2.3-2s2.3,0.9,2.3,2V22.4z M13.8,22.3
		c0,0.8,0.5,1.2,1.5,1.2s1.5-0.4,1.5-1.2v-2.7c0-0.8-0.5-1.2-1.5-1.2s-1.5,0.4-1.5,1.2C13.8,19.6,13.8,22.3,13.8,22.3z"/>
	<path class="st0" d="M21.6,21.9H20v2.3h-0.8v-6.5h2.5c1.4,0,1.9,0.6,1.9,1.6v0.9c0,0.8-0.3,1.3-1,1.5l1.7,2.4h-1L21.6,21.9z
		 M21.6,18.5H20v2.6h1.6c0.8,0,1.1-0.2,1.1-0.9v-0.9C22.7,18.7,22.4,18.5,21.6,18.5z"/>
	<path class="st0" d="M26,22.4c0,0.9,0.3,1.2,1.4,1.2c0.4,0,1,0,1.5-0.1l0.1,0.7c-0.5,0.1-1.1,0.2-1.6,0.2c-1.6,0-2.2-0.7-2.2-1.9
		v-2.9c0-1.2,0.6-1.9,2.2-1.9c0.5,0,1.2,0.1,1.6,0.2l-0.1,0.7c-0.5-0.1-1.1-0.1-1.5-0.1c-1.1,0-1.4,0.3-1.4,1.2V22.4z"/>
</g>
</svg>
