<?xml version="1.0" encoding="utf-8"?>
<!-- Generator: Adobe Illustrator 20.1.0, SVG Export Plug-In . SVG Version: 6.00 Build 0)  -->
<svg version="1.1" id="Layer_1" xmlns="http://www.w3.org/2000/svg" xmlns:xlink="http://www.w3.org/1999/xlink" x="0px" y="0px"
	 width="42px" height="42px" viewBox="0 0 42 42" style="enable-background:new 0 0 42 42;" xml:space="preserve">
<style type="text/css">
	.st0{fill:#EFF9FE;}
	.st1{fill:#3D6480;}
</style>
<g>
	<polygon class="st0" points="10,10 10,32 22.8,32 32,23 32,10 	"/>
	<polygon class="st1" points="10,32 10,10 32,10 32,23 34,21 34,8 8,8 8,34 20.7,34 22.8,32 	"/>
</g>
<polygon class="st1" points="37.3,32.8 37.3,35.9 32.1,30.7 30.7,32 35.9,37.3 32.8,37.3 32.8,39.2 39.2,39.2 39.2,32.8 "/>
<g>
	<path class="st1" d="M17.5,15.7h3.9c2.3,0,3.1,1,3.1,2.6v1.6c0,1.6-0.8,2.6-3.1,2.6h-2.5v3.8h-1.4V15.7z M21.3,16.9h-2.4v4.4h2.4
		c1.3,0,1.8-0.4,1.8-1.4v-1.6C23.1,17.3,22.6,16.9,21.3,16.9z"/>
</g>
</svg>
