<?xml version="1.0" encoding="utf-8"?>
<!-- Generator: Adobe Illustrator 20.1.0, SVG Export Plug-In . SVG Version: 6.00 Build 0)  -->
<svg version="1.1" id="Layer_1" xmlns="http://www.w3.org/2000/svg" xmlns:xlink="http://www.w3.org/1999/xlink" x="0px" y="0px"
	 width="42px" height="42px" viewBox="0 0 42 42" style="enable-background:new 0 0 42 42;" xml:space="preserve">
<style type="text/css">
	.st0{fill:#3E6480;}
	.st1{fill:#EFF9FE;}
</style>
<g>
	<g>
		<polygon class="st0" points="12.4,5.7 10.5,5.7 10.5,8.8 5.3,3.5 4,4.9 9.2,10.1 6,10.1 6,12 12.4,12 		"/>
		<g>
			<polygon class="st1" points="32,32 32,10 19.2,10 10,19 10,32 			"/>
			<polygon class="st0" points="32,10 32,32 10,32 10,19 8,21 8,34 34,34 34,8 21.3,8 19.2,10 			"/>
		</g>
		<g>
			<path class="st0" d="M17.5,15.7h3.9c2.3,0,3.1,1,3.1,2.6v1.6c0,1.6-0.8,2.6-3.1,2.6h-2.5v3.8h-1.4V15.7z M21.3,16.9h-2.4v4.4h2.4
				c1.3,0,1.8-0.4,1.8-1.4v-1.6C23.1,17.3,22.6,16.9,21.3,16.9z"/>
		</g>
	</g>
</g>
</svg>
