<?xml version="1.0" encoding="utf-8"?>
<!-- Generator: Adobe Illustrator 18.0.0, SVG Export Plug-In . SVG Version: 6.00 Build 0)  -->
<!DOCTYPE svg PUBLIC "-//W3C//DTD SVG 1.1//EN" "http://www.w3.org/Graphics/SVG/1.1/DTD/svg11.dtd">
<svg version="1.1" id="Layer_1" xmlns="http://www.w3.org/2000/svg" xmlns:xlink="http://www.w3.org/1999/xlink" x="0px" y="0px"
	 viewBox="0 0 42 42" enable-background="new 0 0 42 42" xml:space="preserve">
<g>
	<path fill="#3D6480" d="M34.9,36.4v2.6h-1v-6.4h1.8c0.8,0,1.4,0.2,1.8,0.5s0.6,0.8,0.6,1.4c0,0.8-0.4,1.4-1.2,1.7l1.8,2.8h-1.2
		L36,36.4H34.9z M34.9,35.5h0.7c0.5,0,0.8-0.1,1.1-0.3c0.2-0.2,0.3-0.5,0.3-0.8c0-0.4-0.1-0.6-0.4-0.8c-0.2-0.2-0.6-0.2-1.1-0.2
		h-0.7V35.5z"/>
	<g>
		<g>
			<path fill="#0060A3" d="M20.5,14.9c-1,0-2,0.2-2.9,0.5c-2.3,1-4,2.7-4.9,5c-0.9,2.5-0.8,5.4,0.5,7.9c1.9,3.6,5.5,5.7,9.6,5.7
				c2,0,4-0.5,5.8-1.5c3.1-1.8,5.1-4.7,5.9-8.2c0.8-3.6-0.1-7.5-2.3-10.6C29.4,10.1,25.2,8,20.6,8c-5.2,0-9.9,2.6-12.5,6.9
				c-0.3,0.4-0.6,1-0.8,1.5c0,0.1-0.1,0.3,0,0.5C7.4,17,7.6,17,7.7,17h0c0.2,0,0.4-0.2,0.8-0.7c1.6-2.2,3.4-3.9,5.5-5
				c1.9-1,4-1.5,6.1-1.5c5,0,9.3,2.7,11.3,7.1c1.1,2.8,1.1,5.9,0,8.5c-1.1,2.4-3,4.2-5.5,5.2c-0.9,0.3-1.9,0.5-2.8,0.5
				c-3.7,0-6.8-2.3-7.6-5.7c-0.4-1.8,0.1-3.8,1.2-5.2c0.7-0.8,1.8-1.8,3.7-1.8c1.2,0,2.3,0.6,3,1.4c0.5,0.6,0.7,1.3,0.5,2.1
				c-0.2,0.6-0.7,1.3-1.3,1.3c-0.2,0-0.3-0.1-0.4-0.2c-0.1-0.1-0.1-0.2-0.1-0.4c0-0.3-0.1-0.8-0.8-1c-0.1,0-0.3-0.1-0.4-0.1
				c-0.9,0-1.6,0.9-1.8,1.8c-0.1,0.9,0.1,1.7,0.7,2.3c0.7,0.8,1.9,1.3,3.1,1.3c0.1,0,0.2,0,0.3,0c1.5-0.2,2.7-0.9,3.5-2.1
				c1-1.4,1.2-3.3,0.7-5.1C26.5,16.8,23.8,14.9,20.5,14.9z"/>
		</g>
	</g>
</g>
</svg>
