<?xml version="1.0" encoding="utf-8"?>
<!-- Generator: Adobe Illustrator 18.0.0, SVG Export Plug-In . SVG Version: 6.00 Build 0)  -->
<!DOCTYPE svg PUBLIC "-//W3C//DTD SVG 1.1//EN" "http://www.w3.org/Graphics/SVG/1.1/DTD/svg11.dtd">
<svg version="1.1" id="Layer_1" xmlns="http://www.w3.org/2000/svg" xmlns:xlink="http://www.w3.org/1999/xlink" x="0px" y="0px"
	 viewBox="0 0 42 42" enable-background="new 0 0 42 42" xml:space="preserve">
<g>
	<g>
		<g>
			<polygon fill="#EFF9FE" points="10,10 10,32 22.8,32 32,23 32,10 			"/>
			<polygon fill="#3D6480" points="10,32 10,10 32,10 32,23 34,21 34,8 8,8 8,34 20.7,34 22.8,32 			"/>
		</g>
		<path fill="#0CB20F" d="M38.6,33.3l-11.7-5.5l-0.2-0.1v0.8v0v10.3L38.6,33.3z M28.5,30.6l5.7,2.7l-5.7,2.7V30.6z"/>
	</g>
	<g>
		<path fill="#3D6480" d="M24.9,23.3c0,1.8-1.1,3.2-3.9,3.2s-3.9-1.5-3.9-3.2v-4.5c0-1.8,1.1-3.2,3.9-3.2s3.9,1.5,3.9,3.2V23.3z
			 M18.5,23.2c0,1.3,0.8,2,2.5,2s2.5-0.7,2.5-2v-4.4c0-1.3-0.8-2-2.5-2s-2.5,0.7-2.5,2V23.2z"/>
	</g>
</g>
</svg>
