<?xml version="1.0" encoding="UTF-8"?>
<!-- Generator: Adobe Illustrator 18.0.0, SVG Export Plug-In . SVG Version: 6.00 Build 0)  -->
<svg width="33" height="16" enable-background="new 0 0 16 16" version="1.1" viewBox="0 0 33 16" xml:space="preserve" xmlns="http://www.w3.org/2000/svg" xmlns:cc="http://creativecommons.org/ns#" xmlns:dc="http://purl.org/dc/elements/1.1/" xmlns:rdf="http://www.w3.org/1999/02/22-rdf-syntax-ns#"><metadata><rdf:RDF><cc:Work rdf:about=""><dc:format>image/svg+xml</dc:format><dc:type rdf:resource="http://purl.org/dc/dcmitype/StillImage"/><dc:title/></cc:Work></rdf:RDF></metadata><g transform="matrix(1.4545 0 0 1.4545 -1.1364 -6.1364)"><g transform="translate(11.587)"><g transform="translate(3.8581 1.1361)"><g transform="translate(-11.587)" fill="#676767"><path d="m3.2233 3.0826v2.5h-1.4v-2.5h-4.8v8.5h2.4v2.5h6.1v-2.5h2.4v-8.5zm-3.8 3.8h-1v1h1v2.8h-1.6v-6.8h3.1v1.7h-0.4v-0.7h-2.1v1h1zm5.4 6.4h-4.5v-6.8h4.5zm2.4-2.6h-1.5v-2.8h1.1v-1h-1.1v-1h1v-1h-2.2v0.7h-0.5v-1.7h3.1v6.8z"/><rect x="1.1233" y="7.2826" width="2.8" height="1"/><rect x="1.1233" y="9.3826" width="2.8" height="1"/></g><g fill="#fff"><path d="m3.2233 3.0826v2.5h-1.4v-2.5h-4.8v8.5h2.4v2.5h6.1v-2.5h2.4v-8.5zm-3.8 3.8h-1v1h1v2.8h-1.6v-6.8h3.1v1.7h-0.4v-0.7h-2.1v1h1zm5.4 6.4h-4.5v-6.8h4.5zm2.4-2.6h-1.5v-2.8h1.1v-1h-1.1v-1h1v-1h-2.2v0.7h-0.5v-1.7h3.1v6.8z"/><rect x="1.1233" y="7.2826" width="2.8" height="1"/><rect x="1.1233" y="9.3826" width="2.8" height="1"/></g></g></g></g></svg>
