<?xml version="1.0" encoding="utf-8"?>
<!-- Generator: Adobe Illustrator 23.1.1, SVG Export Plug-In . SVG Version: 6.00 Build 0)  -->
<svg version="1.1" id="Layer_1" xmlns="http://www.w3.org/2000/svg" xmlns:xlink="http://www.w3.org/1999/xlink" x="0px" y="0px"
	 viewBox="0 0 32 32" style="enable-background:new 0 0 32 32;" xml:space="preserve">
<style type="text/css">
	.st0{clip-path:url(#SVGID_2_);}
	.st1{fill:none;}
	.st2{fill:#FFFFFF;}
</style>
<g>
	<defs>
		<rect id="SVGID_1_" width="32" height="32"/>
	</defs>
	<clipPath id="SVGID_2_">
		<use xlink:href="#SVGID_1_"  style="overflow:visible;"/>
	</clipPath>
	<g id="Share.S_D" class="st0">
		<rect id="Rectangle_1010" class="st1" width="32" height="32"/>
		<path class="st2" d="M21,18c-1,0-1.9,0.5-2.4,1.2l-4.7-2.4c0.1-0.3,0.1-0.6,0.1-0.8c0-0.3-0.1-0.6-0.1-0.9l4.7-2.4
			C19.1,13.5,20,14,21,14c1.7,0,3-1.3,3-3s-1.3-3-3-3s-3,1.3-3,3c0,0.3,0.1,0.6,0.1,0.9l-4.7,2.4C12.9,13.5,12,13,11,13
			c-1.7,0-3,1.3-3,3s1.3,3,3,3c1,0,1.9-0.5,2.4-1.2l4.7,2.4C18.1,20.4,18,20.7,18,21c0,1.7,1.3,3,3,3s3-1.3,3-3S22.7,18,21,18z
			 M21,9c1.1,0,2,0.9,2,2s-0.9,2-2,2s-2-0.9-2-2S19.9,9,21,9z M11,18c-1.1,0-2-0.9-2-2c0-1.1,0.9-2,2-2s2,0.9,2,2
			C13,17.1,12.1,18,11,18z M21,23c-1.1,0-2-0.9-2-2s0.9-2,2-2s2,0.9,2,2S22.1,23,21,23z"/>
	</g>
</g>
</svg>
