<?xml version="1.0" encoding="utf-8"?>
<!-- Generator: Adobe Illustrator 22.0.1, SVG Export Plug-In . SVG Version: 6.00 Build 0)  -->
<svg version="1.1" id="Layer_1" xmlns="http://www.w3.org/2000/svg" xmlns:xlink="http://www.w3.org/1999/xlink" x="0px" y="0px"
	 viewBox="0 0 42 42" style="enable-background:new 0 0 42 42;" xml:space="preserve">
<style type="text/css">
	.st0{fill:#EFF9FE;}
	.st1{fill:#3D6480;}
	.st2{fill:none;}
	.st3{display:none;}
	.st4{display:inline;fill:#3D6480;}
</style>
<polygon class="st0" points="10,10 10,32 22.8,32 32,23 32,10 "/>
<polygon class="st1" points="10,32 10,10 32,10 32,23 34,21 34,8 8,8 8,34 20.7,34 22.8,32 "/>
<polygon class="st1" points="37.3,32.8 37.3,35.9 32.1,30.7 30.7,32 35.9,37.3 32.8,37.3 32.8,39.2 39.2,39.2 39.2,32.8 "/>
<g>
	<path class="st1" d="M17.7,22.4c0,1.1-0.7,2-2.3,2s-2.3-0.9-2.3-2v-2.7c0-1.1,0.7-2,2.3-2s2.3,0.9,2.3,2V22.4z M13.8,22.3
		c0,0.8,0.5,1.2,1.5,1.2s1.5-0.4,1.5-1.2v-2.7c0-0.8-0.5-1.2-1.5-1.2s-1.5,0.4-1.5,1.2C13.8,19.6,13.8,22.3,13.8,22.3z"/>
	<path class="st1" d="M21.6,21.9H20v2.3h-0.8v-6.5h2.5c1.4,0,1.9,0.6,1.9,1.6v0.9c0,0.8-0.3,1.3-1,1.5l1.7,2.4h-1L21.6,21.9z
		 M21.6,18.5H20v2.6h1.6c0.8,0,1.1-0.2,1.1-0.9v-0.9C22.7,18.7,22.4,18.5,21.6,18.5z"/>
	<path class="st1" d="M26,22.4c0,0.9,0.3,1.2,1.4,1.2c0.4,0,1,0,1.5-0.1l0.1,0.7c-0.5,0.1-1.1,0.2-1.6,0.2c-1.6,0-2.2-0.7-2.2-1.9
		v-2.9c0-1.2,0.6-1.9,2.2-1.9c0.5,0,1.2,0.1,1.6,0.2l-0.1,0.7c-0.5-0.1-1.1-0.1-1.5-0.1c-1.1,0-1.4,0.3-1.4,1.2V22.4z"/>
</g>
<path class="st2" d="M0,3c0-1.7,1.3-3,3-3h36c1.7,0,3,1.3,3,3v36c0,1.7-1.3,3-3,3H3c-1.7,0-3-1.3-3-3V3z"/>
<g class="st3">
	<path class="st4" d="M39,1c1.1,0,2,0.9,2,2v36c0,1.1-0.9,2-2,2H3c-1.1,0-2-0.9-2-2V3c0-1.1,0.9-2,2-2H39 M39,0H3C1.3,0,0,1.3,0,3
		v36c0,1.7,1.3,3,3,3h36c1.7,0,3-1.3,3-3V3C42,1.3,40.7,0,39,0L39,0z"/>
</g>
</svg>
