<?xml version="1.0" encoding="utf-8"?>
<!-- Generator: Adobe Illustrator 18.0.0, SVG Export Plug-In . SVG Version: 6.00 Build 0)  -->
<!DOCTYPE svg PUBLIC "-//W3C//DTD SVG 1.1//EN" "http://www.w3.org/Graphics/SVG/1.1/DTD/svg11.dtd">
<svg version="1.1" id="Layer_1" xmlns="http://www.w3.org/2000/svg" xmlns:xlink="http://www.w3.org/1999/xlink" x="0px" y="0px"
	 viewBox="0 0 42 42" enable-background="new 0 0 42 42" xml:space="preserve">
<polygon fill="#3D6480" points="36.9,33 36.9,36.1 31.7,30.8 30.3,32.2 35.6,37.4 32.4,37.4 32.4,39.3 38.8,39.3 38.8,33 "/>
<g>
	<polygon fill="#EFF9FE" points="10,10 10,32 22.8,32 32,23 32,10 	"/>
	<polygon fill="#3D6480" points="10,32 10,10 32,10 32,23 34,21 34,8 8,8 8,34 20.7,34 22.8,32 	"/>
</g>
<g>
	<path fill="#3D6480" d="M22.9,26.7v-4.8h-4.7v4.8h-1.4V16.1h1.4v4.6h4.7v-4.6h1.4v10.7H22.9z"/>
</g>
</svg>
