<?xml version="1.0" encoding="utf-8"?>
<!-- Generator: Adobe Illustrator 18.0.0, SVG Export Plug-In . SVG Version: 6.00 Build 0)  -->
<!DOCTYPE svg PUBLIC "-//W3C//DTD SVG 1.1//EN" "http://www.w3.org/Graphics/SVG/1.1/DTD/svg11.dtd">
<svg version="1.1" id="Layer_1" xmlns="http://www.w3.org/2000/svg" xmlns:xlink="http://www.w3.org/1999/xlink" x="0px" y="0px"
	 viewBox="0 0 42 42" enable-background="new 0 0 42 42" xml:space="preserve">
<polygon fill="#EFF9FE" points="30.2,29 30.1,12.6 26.6,12.6 26.6,9 15.8,9 15.8,11.3 22.6,11.3 24.3,13 24.3,14.9 26.1,14.9 
	27.8,16.6 27.9,29 "/>
<path fill="#3D6480" d="M31.8,12.6l-1.7-1.7h-1.8V9l-1.7-1.7H14.1v4h-4v23.3h17.8l0-4h4L31.8,12.6z M26.2,33H11.8V13h10.8v3.5h3.5
	L26.2,33z M26.1,14.9h-1.8V13l-1.7-1.7h-6.8V9h10.8v3.5h3.5l0,16.4h-2.3l0-12.4L26.1,14.9z"/>
<polygon fill="#EFF9FE" points="26.1,16.6 22.6,16.6 22.6,13 11.8,13 11.8,33 26.2,33 "/>
<g>
	<path fill="#3D6480" d="M21.2,29.8v-4.5h-4.4v4.5h-1.3v-10h1.3v4.3h4.4v-4.3h1.3v10H21.2z"/>
</g>
</svg>
