<?xml version="1.0" encoding="utf-8"?>
<!-- Generator: Adobe Illustrator 18.0.0, SVG Export Plug-In . SVG Version: 6.00 Build 0)  -->
<!DOCTYPE svg PUBLIC "-//W3C//DTD SVG 1.1//EN" "http://www.w3.org/Graphics/SVG/1.1/DTD/svg11.dtd">
<svg version="1.1" id="Layer_1" xmlns="http://www.w3.org/2000/svg" xmlns:xlink="http://www.w3.org/1999/xlink" x="0px" y="0px"
	 viewBox="0 0 42 42" enable-background="new 0 0 42 42" xml:space="preserve">
<polygon fill="#3D6480" points="12.5,5.6 10.6,5.6 10.6,8.7 5.4,3.4 4.1,4.8 9.3,10 6.2,10 6.2,11.9 12.5,11.9 "/>
<g>
	<polygon fill="#EFF9FE" points="32,32 32,10 19.2,10 10,19 10,32 	"/>
	<polygon fill="#3D6480" points="32,10 32,32 10,32 10,19 8,21 8,34 34,34 34,8 21.3,8 19.2,10 	"/>
</g>
<g>
	<path fill="#3D6480" d="M19.1,15.3v4.8h4.7v-4.8h1.4v10.7h-1.4v-4.6h-4.7v4.6h-1.4V15.3H19.1z"/>
</g>
</svg>
