<?xml version="1.0" encoding="utf-8"?>
<!-- Generator: Adobe Illustrator 20.1.0, SVG Export Plug-In . SVG Version: 6.00 Build 0)  -->
<svg version="1.1" id="Layer_1" xmlns="http://www.w3.org/2000/svg" xmlns:xlink="http://www.w3.org/1999/xlink" x="0px" y="0px"
	 width="65px" height="59px" viewBox="0 0 65 59" style="enable-background:new 0 0 65 59;" xml:space="preserve">
<style type="text/css">
	.st0{fill:#0CB20F;}
</style>
<g>
	<path class="st0" d="M54,21.4c1.5,4.6,1.7,9.5,0.5,14.3c-1.7,6.7-5.8,12.3-11.7,15.8S30,56,23.4,54.4c-6.7-1.7-12.3-5.8-15.8-11.7
		S3,29.9,4.6,23.2C8.1,9.5,22,1.1,35.8,4.5c4.6,1.1,8.7,3.5,12.2,7l2.6-2.7c-4-4-8.7-6.7-13.9-8C20.9-3,4.9,6.6,1,22.3
		C-0.9,30,0.3,37.9,4.3,44.6C8.4,51.4,14.8,56.1,22.5,58c2.4,0.6,4.8,0.9,7.2,0.9c5.3,0,10.5-1.4,15.1-4.2
		c6.7-4.1,11.5-10.5,13.4-18.1c1.3-5.4,1.1-11-0.6-16.3L54,21.4z"/>
	<polygon class="st0" points="17,24.1 14.4,26.8 29.5,41.9 64.9,6.5 62.2,3.8 29.5,36.6 	"/>
	<path class="st0" d="M54,21.4c1.5,4.6,1.7,9.5,0.5,14.3c-1.7,6.7-5.8,12.3-11.7,15.8S30,56,23.4,54.4c-6.7-1.7-12.3-5.8-15.8-11.7
		S3,29.9,4.6,23.2C8.1,9.5,22,1.1,35.8,4.5c4.6,1.1,8.7,3.5,12.2,7l2.6-2.7c-4-4-8.7-6.7-13.9-8C20.9-3,4.9,6.6,1,22.3
		C-0.9,30,0.3,37.9,4.3,44.6C8.4,51.4,14.8,56.1,22.5,58c2.4,0.6,4.8,0.9,7.2,0.9c5.3,0,10.5-1.4,15.1-4.2
		c6.7-4.1,11.5-10.5,13.4-18.1c1.3-5.4,1.1-11-0.6-16.3L54,21.4z"/>
	<polygon class="st0" points="17,24.1 14.4,26.8 29.5,41.9 64.9,6.5 62.2,3.8 29.5,36.6 	"/>
</g>
</svg>
