<?xml version="1.0" encoding="utf-8"?>
<!-- Generator: Adobe Illustrator 18.0.0, SVG Export Plug-In . SVG Version: 6.00 Build 0)  -->
<!DOCTYPE svg PUBLIC "-//W3C//DTD SVG 1.1//EN" "http://www.w3.org/Graphics/SVG/1.1/DTD/svg11.dtd">
<svg version="1.1" id="Layer_1" xmlns="http://www.w3.org/2000/svg" xmlns:xlink="http://www.w3.org/1999/xlink" x="0px" y="0px"
	 viewBox="0 0 42 42" enable-background="new 0 0 42 42" xml:space="preserve">
<g>
	<g>
		<polygon fill="none" points="29.3,30.8 29.3,36.1 35,33.5 		"/>
		<path fill="#EFF9FE" d="M32.1,9.9H9.8v22.3h12.7l9.6-9.3V9.9z M17.3,23.8h-0.9v-3h-2.9v3h-0.9v-6.7h0.9V20h2.9v-2.9h0.9V23.8z
			 M19.5,23.8h-0.9v-6.7h0.9V23.8z M23.4,23.8h-1.2L20,17.1h0.8l1.9,5.9l1.9-5.9h0.8L23.4,23.8z M30.1,23.8h-3.9v-6.7H30v0.8H27V20
			h2.8v0.8H27V23h3.1V23.8z"/>
		<polygon fill="#3D6480" points="9.8,9.9 32.1,9.9 32.1,22.9 33.8,21.2 33.8,8.1 8.1,8.1 8.1,33.9 20.7,33.9 22.5,32.1 9.8,32.1 		
			"/>
		<path fill="#0CB20F" d="M27.5,27.9V39l11.9-5.6L27.5,27.9z M29.3,30.8l5.7,2.7l-5.7,2.7V30.8z"/>
		<polygon fill="#3D6480" points="16.5,20 13.5,20 13.5,17.1 12.7,17.1 12.7,23.8 13.5,23.8 13.5,20.7 16.5,20.7 16.5,23.8 
			17.3,23.8 17.3,17.1 16.5,17.1 		"/>
		<rect x="18.6" y="17.1" fill="#3D6480" width="0.9" height="6.7"/>
		<polygon fill="#3D6480" points="22.8,23 20.9,17.1 20,17.1 22.2,23.8 23.4,23.8 25.6,17.1 24.8,17.1 		"/>
		<polygon fill="#3D6480" points="27,20.7 29.8,20.7 29.8,20 27,20 27,17.9 30,17.9 30,17.1 26.1,17.1 26.1,23.8 30.1,23.8 30.1,23 
			27,23 		"/>
	</g>
</g>
</svg>
