<?xml version="1.0" encoding="utf-8"?>
<!-- Generator: Adobe Illustrator 18.0.0, SVG Export Plug-In . SVG Version: 6.00 Build 0)  -->
<!DOCTYPE svg PUBLIC "-//W3C//DTD SVG 1.1//EN" "http://www.w3.org/Graphics/SVG/1.1/DTD/svg11.dtd">
<svg version="1.1" id="Layer_1" xmlns="http://www.w3.org/2000/svg" xmlns:xlink="http://www.w3.org/1999/xlink" x="0px" y="0px"
	 viewBox="0 0 42 42" enable-background="new 0 0 42 42" xml:space="preserve">
<g>
	<polygon fill="none" points="29.3,30.8 29.3,36.1 35,33.5 	"/>
	<path fill="#EFF9FE" d="M28.7,18.8c0-0.7-0.3-0.9-1.1-0.9h-1.6v2.7h1.6c0.8,0,1.1-0.2,1.1-0.9V18.8z"/>
	<path fill="#EFF9FE" d="M32.1,9.9H9.8v22.3h12.7l9.6-9.3V9.9z M16.6,23.8h-3.9v-6.7h3.9v0.8h-3.1V20h2.8v0.8h-2.8V23h3.1V23.8z
		 M23.1,23.8L23,18.4l-1.7,4.5h-1.2l-1.7-4.5l-0.1,5.4h-0.8l0.2-6.7h1.1l1.9,5.1l1.9-5.1h1.1l0.2,6.7H23.1z M29.2,23.8l-1.7-2.4
		h-1.6v2.4H25v-6.7h2.5c1.4,0,1.9,0.6,1.9,1.6v1c0,0.8-0.3,1.3-1.1,1.5l1.7,2.5H29.2z"/>
	<polygon fill="#3D6480" points="9.8,9.9 32.1,9.9 32.1,22.9 33.8,21.2 33.8,8.1 8.1,8.1 8.1,33.9 20.7,33.9 22.5,32.1 9.8,32.1 	
		"/>
	<path fill="#0CB20F" d="M27.5,27.9V39l11.9-5.6L27.5,27.9z M29.3,30.8l5.7,2.7l-5.7,2.7V30.8z"/>
	<polygon fill="#3D6480" points="13.5,20.7 16.4,20.7 16.4,20 13.5,20 13.5,17.9 16.6,17.9 16.6,17.1 12.7,17.1 12.7,23.8 
		16.6,23.8 16.6,23 13.5,23 	"/>
	<polygon fill="#3D6480" points="22.6,17.1 20.7,22.3 18.8,17.1 17.7,17.1 17.5,23.8 18.3,23.8 18.4,18.4 20.1,22.9 21.3,22.9 
		23,18.4 23.1,23.8 23.9,23.8 23.7,17.1 	"/>
	<path fill="#3D6480" d="M29.5,19.7v-1c0-1-0.5-1.6-1.9-1.6H25v6.7h0.9v-2.4h1.6l1.7,2.4h1l-1.7-2.5C29.2,21,29.5,20.5,29.5,19.7z
		 M27.6,20.6h-1.6v-2.7h1.6c0.8,0,1.1,0.2,1.1,0.9v1C28.7,20.4,28.4,20.6,27.6,20.6z"/>
</g>
</svg>
