<?xml version="1.0" encoding="utf-8"?>
<!-- Generator: Adobe Illustrator 18.0.0, SVG Export Plug-In . SVG Version: 6.00 Build 0)  -->
<!DOCTYPE svg PUBLIC "-//W3C//DTD SVG 1.1//EN" "http://www.w3.org/Graphics/SVG/1.1/DTD/svg11.dtd">
<svg version="1.1" id="Layer_1" xmlns="http://www.w3.org/2000/svg" xmlns:xlink="http://www.w3.org/1999/xlink" x="0px" y="0px"
	 viewBox="0 0 16 16" enable-background="new 0 0 16 16" xml:space="preserve">
<g>
	<polygon fill="#FFFFFF" points="4.3,7.2 3.1,7.2 3.1,6 4.3,6 4.3,4.8 3.1,4.8 3.1,3.6 5.6,3.6 5.6,4.4 6.2,4.4 6.2,2.5 2.5,2.5 
		2.5,10.5 4.3,10.5 	"/>
	<polygon fill="#3D6380" points="3.1,3.6 3.1,4.8 4.3,4.8 4.3,4.4 5.6,4.4 5.6,3.6 	"/>
	<rect x="3.1" y="6" fill="#3D6380" width="1.3" height="1.2"/>
	<polygon fill="#FFFFFF" points="9.8,4.4 10.4,4.4 10.4,3.6 12.9,3.6 12.9,4.8 11.7,4.8 11.7,6 12.9,6 12.9,7.2 11.7,7.2 11.7,10.5 
		13.5,10.5 13.5,2.5 9.8,2.5 	"/>
	<polygon fill="#3D6380" points="12.9,3.6 10.4,3.6 10.4,4.4 11.7,4.4 11.7,4.8 12.9,4.8 	"/>
	<rect x="11.7" y="6" fill="#3D6380" width="1.3" height="1.2"/>
	<path fill="#3D6480" d="M14.5,1.5H8.8v2.9H7.2V1.5H1.5v10.1h2.8v2.9h7.3v-2.9h2.8V1.5z M13.5,10.5h-1.8V7.2V6V4.8V4.4h-1.3H9.8V2.5
		h3.7V10.5z M5.4,13.5v-8h5.3v8H5.4z M2.5,2.5h3.7v1.9H5.6H4.3v0.3V6v1.2v3.3H2.5V2.5z"/>
	<path fill="#FFFFFF" d="M10.6,5.5H5.4v8h5.3V5.5z M6.4,6.5h3.3v1.2H6.4V6.5z M6.4,8.9h3.3v1.2H6.4V8.9z"/>
	<rect x="6.4" y="6.5" fill="#3D6380" width="3.3" height="1.2"/>
	<rect x="6.4" y="8.9" fill="#3D6380" width="3.3" height="1.2"/>
</g>
</svg>
